<mxfile host="65bd71144e">
    <diagram name="Page-1" id="9f46799a-70d6-7492-0946-bef42562c5a5">
        <mxGraphModel dx="1074" dy="519" grid="1" gridSize="10" guides="1" tooltips="1" connect="1" arrows="1" fold="1" page="1" pageScale="1" pageWidth="1100" pageHeight="850" background="none" math="0" shadow="0">
            <root>
                <mxCell id="0"/>
                <mxCell id="1" parent="0"/>
                <mxCell id="ugMZ8tAmapSa5t5XAWcm-1" value="" style="whiteSpace=wrap;html=1;aspect=fixed;fillColor=#4D4D4D;strokeColor=#666666;fontColor=#333333;" parent="1" vertex="1">
                    <mxGeometry x="180" y="160" width="750" height="750" as="geometry"/>
                </mxCell>
                <mxCell id="ugMZ8tAmapSa5t5XAWcm-2" value="Customer" style="shape=umlActor;verticalLabelPosition=bottom;verticalAlign=top;html=1;outlineConnect=0;" parent="1" vertex="1">
                    <mxGeometry x="50" y="510" width="60" height="120" as="geometry"/>
                </mxCell>
                <mxCell id="ugMZ8tAmapSa5t5XAWcm-3" value="Service Provider" style="shape=umlActor;verticalLabelPosition=bottom;verticalAlign=top;html=1;outlineConnect=0;" parent="1" vertex="1">
                    <mxGeometry x="980" y="490" width="60" height="120" as="geometry"/>
                </mxCell>
                <mxCell id="ugMZ8tAmapSa5t5XAWcm-4" value="High Five Star App" style="text;strokeColor=none;fillColor=none;html=1;fontSize=24;fontStyle=1;verticalAlign=middle;align=center;" parent="1" vertex="1">
                    <mxGeometry x="490" y="30" width="100" height="40" as="geometry"/>
                </mxCell>
                <mxCell id="ugMZ8tAmapSa5t5XAWcm-6" value="Authenticate" style="ellipse;whiteSpace=wrap;html=1;fillColor=#66B2FF;" parent="1" vertex="1">
                    <mxGeometry x="425" y="420" width="90" height="50" as="geometry"/>
                </mxCell>
                <mxCell id="ugMZ8tAmapSa5t5XAWcm-7" value="Search for Services&lt;span style=&quot;color: rgba(0 , 0 , 0 , 0) ; font-family: monospace ; font-size: 0px&quot;&gt;%3CmxGraphModel%3E%3Croot%3E%3CmxCell%20id%3D%220%22%2F%3E%3CmxCell%20id%3D%221%22%20parent%3D%220%22%2F%3E%3CmxCell%20id%3D%222%22%20value%3D%22Authenticate%22%20style%3D%22ellipse%3BwhiteSpace%3Dwrap%3Bhtml%3D1%3B%22%20vertex%3D%221%22%20parent%3D%221%22%3E%3CmxGeometry%20x%3D%22525%22%20y%3D%22260%22%20width%3D%2290%22%20height%3D%2250%22%20as%3D%22geometry%22%2F%3E%3C%2FmxCell%3E%3C%2Froot%3E%3C%2FmxGraphModel%3E&lt;/span&gt;" style="ellipse;whiteSpace=wrap;html=1;fillColor=#66B2FF;" parent="1" vertex="1">
                    <mxGeometry x="315" y="490" width="90" height="50" as="geometry"/>
                </mxCell>
                <mxCell id="ugMZ8tAmapSa5t5XAWcm-8" value="Contact Service Provider" style="ellipse;whiteSpace=wrap;html=1;fillColor=#66B2FF;" parent="1" vertex="1">
                    <mxGeometry x="315" y="580" width="90" height="70" as="geometry"/>
                </mxCell>
                <mxCell id="ugMZ8tAmapSa5t5XAWcm-9" value="Negotiate" style="ellipse;whiteSpace=wrap;html=1;fillColor=#66B2FF;" parent="1" vertex="1">
                    <mxGeometry x="540" y="690" width="100" height="50" as="geometry"/>
                </mxCell>
                <mxCell id="ugMZ8tAmapSa5t5XAWcm-10" value="Sign Contract" style="ellipse;whiteSpace=wrap;html=1;fillColor=#66B2FF;" parent="1" vertex="1">
                    <mxGeometry x="550" y="790" width="90" height="50" as="geometry"/>
                </mxCell>
                <mxCell id="ugMZ8tAmapSa5t5XAWcm-11" value="Create Profile/account request" style="ellipse;whiteSpace=wrap;html=1;fillColor=#66B2FF;" parent="1" vertex="1">
                    <mxGeometry x="747.5" y="510" width="105" height="80" as="geometry"/>
                </mxCell>
                <mxCell id="ugMZ8tAmapSa5t5XAWcm-12" value="Choose Account Tier" style="ellipse;whiteSpace=wrap;html=1;fillColor=#66B2FF;" parent="1" vertex="1">
                    <mxGeometry x="750" y="670" width="100" height="60" as="geometry"/>
                </mxCell>
                <mxCell id="ugMZ8tAmapSa5t5XAWcm-13" value="Submit review of service provider" style="ellipse;whiteSpace=wrap;html=1;fillColor=#66B2FF;" parent="1" vertex="1">
                    <mxGeometry x="300" y="700" width="120" height="80" as="geometry"/>
                </mxCell>
                <mxCell id="ugMZ8tAmapSa5t5XAWcm-14" value="Receive incentive discounts for high usage" style="ellipse;whiteSpace=wrap;html=1;fillColor=#66B2FF;" parent="1" vertex="1">
                    <mxGeometry x="300" y="810" width="120" height="80" as="geometry"/>
                </mxCell>
                <mxCell id="x4YnYtIrZRJGM8KnxDix-6" value="Receive communication from customer" style="ellipse;whiteSpace=wrap;html=1;fillColor=#66B2FF;" parent="1" vertex="1">
                    <mxGeometry x="755" y="800" width="95" height="80" as="geometry"/>
                </mxCell>
                <mxCell id="x4YnYtIrZRJGM8KnxDix-7" value="" style="endArrow=open;endFill=1;endSize=12;html=1;rounded=0;strokeColor=#3399FF;exitX=0.5;exitY=0.5;exitDx=0;exitDy=0;exitPerimeter=0;" parent="1" source="ugMZ8tAmapSa5t5XAWcm-3" target="x4YnYtIrZRJGM8KnxDix-6" edge="1">
                    <mxGeometry width="160" relative="1" as="geometry">
                        <mxPoint x="450" y="590" as="sourcePoint"/>
                        <mxPoint x="610" y="590" as="targetPoint"/>
                    </mxGeometry>
                </mxCell>
                <mxCell id="x4YnYtIrZRJGM8KnxDix-9" value="" style="endArrow=open;endFill=1;endSize=12;html=1;rounded=0;strokeColor=#3399FF;exitX=0.5;exitY=0.583;exitDx=0;exitDy=0;exitPerimeter=0;" parent="1" target="ugMZ8tAmapSa5t5XAWcm-7" edge="1">
                    <mxGeometry width="160" relative="1" as="geometry">
                        <mxPoint x="80" y="579.96" as="sourcePoint"/>
                        <mxPoint x="610" y="590" as="targetPoint"/>
                    </mxGeometry>
                </mxCell>
                <mxCell id="x4YnYtIrZRJGM8KnxDix-11" value="" style="endArrow=open;endFill=1;endSize=12;html=1;rounded=0;strokeColor=#3399FF;" parent="1" source="ugMZ8tAmapSa5t5XAWcm-5" target="ugMZ8tAmapSa5t5XAWcm-6" edge="1">
                    <mxGeometry width="160" relative="1" as="geometry">
                        <mxPoint x="480" y="390" as="sourcePoint"/>
                        <mxPoint x="640" y="390" as="targetPoint"/>
                    </mxGeometry>
                </mxCell>
                <mxCell id="x4YnYtIrZRJGM8KnxDix-12" value="" style="endArrow=open;endFill=1;endSize=12;html=1;rounded=0;strokeColor=#3399FF;entryX=0.017;entryY=0.425;entryDx=0;entryDy=0;entryPerimeter=0;" parent="1" target="ugMZ8tAmapSa5t5XAWcm-14" edge="1">
                    <mxGeometry width="160" relative="1" as="geometry">
                        <mxPoint x="80" y="580" as="sourcePoint"/>
                        <mxPoint x="240" y="580" as="targetPoint"/>
                    </mxGeometry>
                </mxCell>
                <mxCell id="x4YnYtIrZRJGM8KnxDix-13" value="" style="endArrow=open;endFill=1;endSize=12;html=1;rounded=0;strokeColor=#3399FF;" parent="1" target="ugMZ8tAmapSa5t5XAWcm-11" edge="1">
                    <mxGeometry width="160" relative="1" as="geometry">
                        <mxPoint x="1010" y="550" as="sourcePoint"/>
                        <mxPoint x="1010" y="470" as="targetPoint"/>
                    </mxGeometry>
                </mxCell>
                <mxCell id="x4YnYtIrZRJGM8KnxDix-14" value="" style="endArrow=open;endFill=1;endSize=12;html=1;rounded=0;strokeColor=#3399FF;entryX=0.5;entryY=0;entryDx=0;entryDy=0;exitX=0.5;exitY=1;exitDx=0;exitDy=0;" parent="1" source="ugMZ8tAmapSa5t5XAWcm-11" target="ugMZ8tAmapSa5t5XAWcm-12" edge="1">
                    <mxGeometry width="160" relative="1" as="geometry">
                        <mxPoint x="690" y="480" as="sourcePoint"/>
                        <mxPoint x="850" y="480" as="targetPoint"/>
                    </mxGeometry>
                </mxCell>
                <mxCell id="ugMZ8tAmapSa5t5XAWcm-5" value="Login to Customer interface" style="ellipse;whiteSpace=wrap;html=1;fillColor=#66B2FF;" parent="1" vertex="1">
                    <mxGeometry x="410" y="290" width="120" height="80" as="geometry"/>
                </mxCell>
                <mxCell id="3" value="&amp;lt;&amp;lt;extend&amp;gt;&amp;gt;" style="html=1;verticalAlign=bottom;labelBackgroundColor=none;endArrow=open;endFill=0;dashed=1;fillColor=#1ba1e2;strokeColor=#3399ff;jumpSize=6;strokeWidth=2;entryX=0;entryY=0.5;entryDx=0;entryDy=0;" parent="1" target="ugMZ8tAmapSa5t5XAWcm-10" edge="1">
                    <mxGeometry x="0.0013" width="160" relative="1" as="geometry">
                        <mxPoint x="420" y="739.5" as="sourcePoint"/>
                        <mxPoint x="540" y="780" as="targetPoint"/>
                        <mxPoint as="offset"/>
                    </mxGeometry>
                </mxCell>
                <mxCell id="4" value="&amp;lt;&amp;lt;extend&amp;gt;&amp;gt;" style="html=1;verticalAlign=bottom;labelBackgroundColor=none;endArrow=open;endFill=0;dashed=1;fillColor=#1ba1e2;strokeColor=#3399ff;jumpSize=6;strokeWidth=2;entryX=0.556;entryY=1;entryDx=0;entryDy=0;entryPerimeter=0;exitX=0.5;exitY=0;exitDx=0;exitDy=0;" parent="1" source="ugMZ8tAmapSa5t5XAWcm-10" target="ugMZ8tAmapSa5t5XAWcm-9" edge="1">
                    <mxGeometry width="160" relative="1" as="geometry">
                        <mxPoint x="596" y="780" as="sourcePoint"/>
                        <mxPoint x="585" y="670" as="targetPoint"/>
                        <mxPoint as="offset"/>
                    </mxGeometry>
                </mxCell>
                <mxCell id="5" value="&amp;lt;&amp;lt;extend&amp;gt;&amp;gt;" style="html=1;verticalAlign=bottom;labelBackgroundColor=none;endArrow=open;endFill=0;dashed=1;fillColor=#1ba1e2;strokeColor=#3399ff;jumpSize=6;strokeWidth=2;entryX=1;entryY=0.5;entryDx=0;entryDy=0;exitX=0;exitY=0.5;exitDx=0;exitDy=0;" parent="1" source="x4YnYtIrZRJGM8KnxDix-6" target="ugMZ8tAmapSa5t5XAWcm-9" edge="1">
                    <mxGeometry x="-0.015" y="-8" width="160" relative="1" as="geometry">
                        <mxPoint x="670" y="680" as="sourcePoint"/>
                        <mxPoint x="790" y="720.5" as="targetPoint"/>
                        <mxPoint as="offset"/>
                    </mxGeometry>
                </mxCell>
                <mxCell id="6" value="&amp;lt;&amp;lt;extend&amp;gt;&amp;gt;" style="html=1;verticalAlign=bottom;labelBackgroundColor=none;endArrow=open;endFill=0;dashed=1;fillColor=#1ba1e2;strokeColor=#3399ff;jumpSize=6;strokeWidth=2;entryX=1;entryY=0.5;entryDx=0;entryDy=0;exitX=0.033;exitY=0.36;exitDx=0;exitDy=0;exitPerimeter=0;" parent="1" source="ugMZ8tAmapSa5t5XAWcm-9" target="ugMZ8tAmapSa5t5XAWcm-8" edge="1">
                    <mxGeometry x="0.0013" width="160" relative="1" as="geometry">
                        <mxPoint x="400" y="619.5" as="sourcePoint"/>
                        <mxPoint x="520" y="660" as="targetPoint"/>
                        <mxPoint as="offset"/>
                    </mxGeometry>
                </mxCell>
                <mxCell id="7" value="&amp;lt;&amp;lt;extend&amp;gt;&amp;gt;" style="html=1;verticalAlign=bottom;labelBackgroundColor=none;endArrow=open;endFill=0;dashed=1;fillColor=#1ba1e2;strokeColor=#3399ff;jumpSize=6;strokeWidth=2;entryX=0.5;entryY=1;entryDx=0;entryDy=0;exitX=0.5;exitY=0;exitDx=0;exitDy=0;" parent="1" source="ugMZ8tAmapSa5t5XAWcm-8" target="ugMZ8tAmapSa5t5XAWcm-7" edge="1">
                    <mxGeometry x="-0.1429" width="160" relative="1" as="geometry">
                        <mxPoint x="350" y="520" as="sourcePoint"/>
                        <mxPoint x="470" y="560.5" as="targetPoint"/>
                        <mxPoint as="offset"/>
                    </mxGeometry>
                </mxCell>
                <mxCell id="8" value="Login to Service Provider Interface" style="ellipse;whiteSpace=wrap;html=1;fillColor=#66B2FF;" parent="1" vertex="1">
                    <mxGeometry x="610" y="290" width="120" height="80" as="geometry"/>
                </mxCell>
                <mxCell id="9" value="Authenticate" style="ellipse;whiteSpace=wrap;html=1;fillColor=#66B2FF;" parent="1" vertex="1">
                    <mxGeometry x="625" y="420" width="90" height="50" as="geometry"/>
                </mxCell>
                <mxCell id="10" value="" style="endArrow=open;endFill=1;endSize=12;html=1;rounded=0;strokeColor=#3399FF;exitX=0.5;exitY=1;exitDx=0;exitDy=0;entryX=0.5;entryY=0;entryDx=0;entryDy=0;" parent="1" source="8" target="9" edge="1">
                    <mxGeometry width="160" relative="1" as="geometry">
                        <mxPoint x="639.5" y="370" as="sourcePoint"/>
                        <mxPoint x="639.5" y="420" as="targetPoint"/>
                        <Array as="points"/>
                    </mxGeometry>
                </mxCell>
                <mxCell id="11" value="" style="endArrow=open;endFill=1;endSize=12;html=1;rounded=0;strokeColor=#3399FF;" parent="1" edge="1">
                    <mxGeometry width="160" relative="1" as="geometry">
                        <mxPoint x="80" y="510" as="sourcePoint"/>
                        <mxPoint x="409.99721850371674" y="329.9979576379186" as="targetPoint"/>
                        <Array as="points">
                            <mxPoint x="80" y="330"/>
                        </Array>
                    </mxGeometry>
                </mxCell>
                <mxCell id="12" value="" style="endArrow=open;endFill=1;endSize=12;html=1;rounded=0;strokeColor=#3399FF;exitX=0.5;exitY=0.583;exitDx=0;exitDy=0;exitPerimeter=0;entryX=0.992;entryY=0.363;entryDx=0;entryDy=0;entryPerimeter=0;" parent="1" target="8" edge="1">
                    <mxGeometry width="160" relative="1" as="geometry">
                        <mxPoint x="1010" y="490.00000000000006" as="sourcePoint"/>
                        <mxPoint x="1253.3072185037167" y="352.7879576379186" as="targetPoint"/>
                        <Array as="points">
                            <mxPoint x="1010" y="319"/>
                        </Array>
                    </mxGeometry>
                </mxCell>
                <mxCell id="13" value="Admin" style="shape=umlActor;verticalLabelPosition=bottom;verticalAlign=top;html=1;outlineConnect=0;" parent="1" vertex="1">
                    <mxGeometry x="950" y="70" width="60" height="120" as="geometry"/>
                </mxCell>
                <mxCell id="18" value="Accept request for new account" style="ellipse;whiteSpace=wrap;html=1;fillColor=#66B2FF;" parent="1" vertex="1">
                    <mxGeometry x="745" y="180" width="110" height="70" as="geometry"/>
                </mxCell>
                <mxCell id="20" value="Create account for S.P if required" style="ellipse;whiteSpace=wrap;html=1;fillColor=#66B2FF;" parent="1" vertex="1">
                    <mxGeometry x="580" y="180" width="110" height="70" as="geometry"/>
                </mxCell>
                <mxCell id="21" value="&amp;lt;&amp;lt;extend&amp;gt;&amp;gt;" style="html=1;verticalAlign=bottom;labelBackgroundColor=none;endArrow=open;endFill=0;dashed=1;fillColor=#1ba1e2;strokeColor=#3399ff;jumpSize=6;strokeWidth=2;entryX=1;entryY=0.5;entryDx=0;entryDy=0;exitX=0.045;exitY=0.429;exitDx=0;exitDy=0;exitPerimeter=0;" parent="1" source="18" target="20" edge="1">
                    <mxGeometry x="0.0304" y="-19" width="160" relative="1" as="geometry">
                        <mxPoint x="740" y="200" as="sourcePoint"/>
                        <mxPoint x="688.5699999999999" y="185" as="targetPoint"/>
                        <mxPoint x="1" as="offset"/>
                    </mxGeometry>
                </mxCell>
                <mxCell id="22" value="Monitor Accounts for Scam companies and Remove" style="ellipse;whiteSpace=wrap;html=1;fillColor=#66B2FF;" parent="1" vertex="1">
                    <mxGeometry x="400" y="170" width="125" height="90" as="geometry"/>
                </mxCell>
                <mxCell id="23" value="" style="endArrow=open;endFill=1;endSize=12;html=1;rounded=0;strokeColor=#3399FF;entryX=0.414;entryY=0.005;entryDx=0;entryDy=0;entryPerimeter=0;exitX=0.5;exitY=0.5;exitDx=0;exitDy=0;exitPerimeter=0;" parent="1" source="13" target="22" edge="1">
                    <mxGeometry width="160" relative="1" as="geometry">
                        <mxPoint x="960" y="130" as="sourcePoint"/>
                        <mxPoint x="610" y="109.53999999999996" as="targetPoint"/>
                        <Array as="points">
                            <mxPoint x="452" y="130"/>
                        </Array>
                    </mxGeometry>
                </mxCell>
                <mxCell id="24" value="Report Scam companies to Admin" style="ellipse;whiteSpace=wrap;html=1;fillColor=#66B2FF;" parent="1" vertex="1">
                    <mxGeometry x="200" y="170" width="125" height="90" as="geometry"/>
                </mxCell>
                <mxCell id="25" value="" style="endArrow=open;endFill=1;endSize=12;html=1;rounded=0;strokeColor=#3399FF;entryX=0;entryY=0.5;entryDx=0;entryDy=0;" parent="1" source="ugMZ8tAmapSa5t5XAWcm-2" target="24" edge="1">
                    <mxGeometry width="160" relative="1" as="geometry">
                        <mxPoint x="50" y="470" as="sourcePoint"/>
                        <mxPoint x="379.9972185037168" y="289.9979576379187" as="targetPoint"/>
                        <Array as="points">
                            <mxPoint x="80" y="280"/>
                        </Array>
                    </mxGeometry>
                </mxCell>
                <mxCell id="26" value="" style="endArrow=open;endFill=1;endSize=12;html=1;rounded=0;strokeColor=#3399FF;entryX=0.5;entryY=0;entryDx=0;entryDy=0;" parent="1" target="18" edge="1">
                    <mxGeometry width="160" relative="1" as="geometry">
                        <mxPoint x="985.65" y="130" as="sourcePoint"/>
                        <mxPoint x="820.003001466583" y="145.7759046222302" as="targetPoint"/>
                        <Array as="points">
                            <mxPoint x="800" y="130"/>
                        </Array>
                    </mxGeometry>
                </mxCell>
            </root>
        </mxGraphModel>
    </diagram>
</mxfile>